<?xml version="1.0" encoding="UTF-8" standalone="no"?>
<!DOCTYPE svg PUBLIC "-//W3C//DTD SVG 1.1//EN" "http://www.w3.org/Graphics/SVG/1.1/DTD/svg11.dtd">
<svg version="1.1" xmlns="http://www.w3.org/2000/svg" xmlns:xlink="http://www.w3.org/1999/xlink" preserveAspectRatio="xMidYMid meet" viewBox="0 0 640 640" width="640" height="640"><defs><path d="M334.32 16.5L341.35 23.51L348.47 30.63L355.69 37.83L362.99 45.13L370.37 52.51L377.83 59.97L385.36 67.5L392.95 75.1L400.6 82.76L408.31 90.47L416.06 98.24L423.85 106.04L431.67 113.88L439.53 121.76L447.41 129.66L455.31 137.58L463.22 145.51L471.14 153.45L479.06 161.39L486.98 169.33L494.89 177.26L502.78 185.18L510.66 193.07L518.5 200.94L526.32 208.77L534.1 216.56L541.83 224.31L549.52 232.01L557.15 239.65L564.72 247.23L572.22 254.75L579.66 262.18L587.02 269.54L594.29 276.82L601.48 284L608.57 291.08L615.56 298.06L622.45 304.93L623.18 305.69L623.88 306.46L624.53 307.25L625.15 308.07L625.73 308.9L626.28 309.75L626.78 310.62L627.25 311.5L627.68 312.39L628.08 313.3L628.43 314.22L628.75 315.15L629.03 316.08L629.28 317.03L629.48 317.98L629.65 318.94L629.78 319.9L629.88 320.87L629.93 321.84L629.95 322.81L629.93 323.78L629.88 324.75L629.78 325.72L629.65 326.68L629.48 327.64L629.28 328.59L629.03 329.54L628.75 330.47L628.43 331.4L628.08 332.32L627.68 333.23L627.25 334.12L626.78 335L626.28 335.87L625.73 336.72L625.15 337.55L624.53 338.36L623.88 339.16L623.18 339.93L622.45 340.68L602.64 360.43L585.43 377.58L570.68 392.3L558.22 404.73L547.9 415.04L539.56 423.37L533.04 429.89L528.2 434.75L524.87 438.1L522.9 440.1L522.13 440.91L522.41 440.67L523.57 439.56L525.47 437.71L527.95 435.29L530.85 432.45L534.01 429.35L537.28 426.14L540.5 422.99L543.52 420.03L546.17 417.43L548.32 415.35L549.79 413.93L550.43 413.34L550.08 413.73L548.6 415.26L545.82 418.07L541.58 422.33L535.74 428.2L528.13 435.82L518.6 445.35L506.99 456.95L493.15 470.77L476.91 486.97L458.13 505.7L436.65 527.13L412.31 551.39L384.96 578.66L354.43 609.08L320.58 642.81L304.22 626.5L288.99 611.32L274.83 597.21L261.69 584.11L249.51 571.98L238.25 560.76L227.85 550.39L218.25 540.83L209.41 532.02L201.27 523.9L193.77 516.43L186.87 509.55L180.5 503.21L174.62 497.35L169.18 491.93L164.11 486.88L159.37 482.16L154.9 477.7L150.65 473.47L146.56 469.4L142.59 465.45L138.68 461.55L134.77 457.66L130.81 453.72L126.76 449.68L122.54 445.49L118.12 441.09L113.44 436.42L108.45 431.45L103.08 426.11L97.3 420.34L91.04 414.11L84.25 407.35L76.88 400.01L68.87 392.03L60.18 383.37L50.74 373.97L40.51 363.78L29.43 352.75L17.45 340.81L16.73 340.05L16.05 339.27L15.4 338.46L14.79 337.64L14.21 336.8L13.68 335.95L13.18 335.07L12.71 334.19L12.29 333.29L11.9 332.37L11.55 331.45L11.23 330.52L10.95 329.57L10.71 328.62L10.51 327.67L10.34 326.71L10.21 325.74L10.12 324.77L10.07 323.8L10.05 322.83L10.07 321.85L10.12 320.88L10.21 319.91L10.34 318.95L10.51 317.99L10.71 317.03L10.95 316.09L11.23 315.15L11.55 314.22L11.9 313.3L12.29 312.39L12.71 311.5L13.18 310.62L13.68 309.75L14.21 308.9L14.79 308.07L15.4 307.26L16.05 306.46L16.73 305.69L17.45 304.93L17.63 304.75L18.18 304.21L19.08 303.31L20.35 302.04L21.99 300.41L24 298.41L26.37 296.04L29.12 293.3L32.23 290.19L35.72 286.71L39.59 282.86L43.83 278.63L48.45 274.03L53.44 269.05L58.82 263.69L64.57 257.95L70.71 251.83L77.23 245.33L84.14 238.44L91.44 231.17L99.12 223.51L107.19 215.46L115.65 207.03L124.51 198.2L133.76 188.99L143.4 179.38L153.44 169.37L163.87 158.97L174.71 148.17L185.94 136.98L197.57 125.38L209.61 113.38L222.06 100.98L234.9 88.18L248.16 74.97L261.82 61.36L275.89 47.34L290.37 32.9L305.27 18.06L320.58 2.81L327.39 9.6L334.32 16.5ZM320.58 417.43L415.58 322.81L320.58 228.18L225.58 322.81L320.58 417.43Z" id="k1XtyOYRX"></path></defs><g><g><g><use xlink:href="#k1XtyOYRX" opacity="1" fill="#197cf7" fill-opacity="1"></use><g><use xlink:href="#k1XtyOYRX" opacity="1" fill-opacity="0" stroke="#000000" stroke-width="1" stroke-opacity="0"></use></g></g></g></g></svg>