<?xml version="1.0" encoding="UTF-8" standalone="no"?>
<!DOCTYPE svg PUBLIC "-//W3C//DTD SVG 1.1//EN" "http://www.w3.org/Graphics/SVG/1.1/DTD/svg11.dtd">
<svg version="1.1" xmlns="http://www.w3.org/2000/svg" xmlns:xlink="http://www.w3.org/1999/xlink" preserveAspectRatio="xMidYMid meet" viewBox="8.162499999999993 -1.0022459621556155 625.6378166341624 644.0021315837552" width="621.64" height="640"><defs><path d="M140.03 0.01L140.29 0.03L140.55 0.05L140.8 0.08L141.06 0.12L141.32 0.16L141.57 0.21L141.83 0.27L142.08 0.33L142.33 0.4L142.58 0.48L142.83 0.56L143.08 0.65L143.32 0.75L143.56 0.86L143.8 0.97L144.04 1.08L144.28 1.21L144.51 1.34L264.88 70.61L264.9 70.63L264.93 70.65L264.96 70.67L264.99 70.69L265.02 70.71L265.05 70.73L265.07 70.75L265.1 70.77L265.13 70.79L265.16 70.81L265.19 70.83L265.22 70.85L265.24 70.87L265.27 70.9L265.3 70.92L265.33 70.94L265.35 70.96L265.38 70.98L265.41 71L265.44 71.02L265.46 71.04L265.49 71.06L265.52 71.09L265.55 71.11L265.57 71.13L265.6 71.15L265.63 71.17L265.66 71.19L265.68 71.22L265.71 71.24L265.74 71.26L265.76 71.28L265.79 71.3L265.82 71.33L265.84 71.35L265.87 71.37L265.9 71.39L265.92 71.42L265.95 71.44L265.98 71.46L266 71.48L266.03 71.5L266.05 71.52L266.08 71.53L266.1 71.55L266.13 71.57L266.15 71.59L266.18 71.6L266.2 71.62L266.23 71.64L266.25 71.66L266.28 71.68L266.3 71.7L266.33 71.71L266.35 71.73L266.37 71.75L266.4 71.77L266.42 71.79L266.45 71.81L266.47 71.82L266.5 71.84L266.52 71.86L266.55 71.88L266.57 71.9L266.59 71.92L266.62 71.94L266.64 71.96L266.67 71.98L266.69 72L266.71 72.02L266.74 72.03L266.76 72.05L266.79 72.07L266.81 72.09L266.83 72.11L266.86 72.13L266.88 72.15L266.9 72.17L266.93 72.19L266.95 72.21L266.97 72.24L267 72.27L267.02 72.3L267.05 72.32L267.07 72.35L267.09 72.38L267.12 72.41L267.14 72.44L267.17 72.47L267.19 72.5L267.21 72.52L267.24 72.55L267.26 72.58L267.28 72.61L267.3 72.64L267.33 72.67L267.35 72.7L267.37 72.73L267.4 72.76L267.42 72.79L267.44 72.82L267.46 72.84L267.49 72.87L267.51 72.9L267.53 72.93L267.55 72.96L267.57 72.99L267.6 73.02L267.62 73.05L267.64 73.08L267.66 73.11L267.68 73.14L267.7 73.17L267.72 73.2L267.75 73.23L267.77 73.26L267.79 73.3L267.81 73.33L267.83 73.36L267.85 73.39L267.87 73.41L267.88 73.43L267.9 73.46L267.92 73.48L267.93 73.5L267.95 73.53L267.97 73.55L267.99 73.57L268 73.59L268.02 73.61L268.04 73.64L268.06 73.66L268.07 73.68L268.09 73.7L268.13 73.75L268.17 73.79L268.18 73.81L268.2 73.83L268.22 73.85L268.24 73.88L268.26 73.9L268.27 73.92L268.29 73.94L268.31 73.96L268.33 73.99L268.34 74.01L268.36 74.03L268.38 74.05L268.39 74.08L268.41 74.1L268.42 74.12L268.44 74.15L268.45 74.17L268.47 74.19L268.48 74.22L268.5 74.24L268.51 74.26L268.53 74.29L268.54 74.32L268.56 74.36L268.58 74.4L268.6 74.44L268.62 74.48L268.64 74.51L268.66 74.55L268.67 74.59L268.69 74.63L268.71 74.66L268.73 74.7L268.75 74.74L268.76 74.78L268.78 74.82L268.8 74.86L268.81 74.89L268.83 74.93L268.85 74.97L268.86 75.01L268.88 75.05L268.9 75.09L268.91 75.13L268.93 75.17L268.95 75.21L268.96 75.24L268.98 75.28L268.99 75.32L269.01 75.36L269.02 75.4L269.04 75.44L269.05 75.48L269.07 75.52L269.08 75.56L269.09 75.6L269.11 75.64L269.12 75.68L269.13 75.72L269.15 75.76L269.16 75.8L269.18 75.84L269.18 75.86L269.19 75.88L269.2 75.9L269.21 75.92L269.22 75.94L269.22 75.97L269.23 75.99L269.24 76.01L269.25 76.03L269.26 76.05L269.27 76.07L269.28 76.09L269.29 76.11L269.3 76.13L269.32 76.17L269.35 76.24L269.36 76.26L269.37 76.28L269.38 76.3L269.39 76.32L269.4 76.34L269.41 76.36L269.42 76.38L269.43 76.4L269.44 76.43L269.44 76.45L269.45 76.47L269.46 76.49L269.47 76.51L269.48 76.53L269.49 76.55L269.49 76.58L269.5 76.6L269.51 76.62L269.51 76.64L269.52 76.67L269.53 76.69L269.54 76.75L269.56 76.82L269.58 76.88L269.59 76.94L269.61 77.01L269.62 77.07L269.64 77.14L269.65 77.2L269.67 77.27L269.68 77.33L269.69 77.4L269.7 77.46L269.72 77.53L269.73 77.59L269.74 77.66L269.75 77.72L269.76 77.79L269.77 77.85L269.78 77.92L269.79 77.98L269.8 78.05L269.81 78.11L269.81 78.18L269.82 78.24L269.83 78.31L269.83 78.38L269.84 78.44L269.84 78.51L269.85 78.57L269.85 78.64L269.86 78.71L269.86 78.77L269.87 78.84L269.87 78.9L269.87 78.97L269.87 79.04L269.87 79.1L269.87 79.17L269.87 79.23L269.88 79.3L269.88 336.71L370.15 278.98L370.15 147.43L370.15 147.36L370.15 147.29L370.15 147.23L370.15 147.16L370.16 147.1L370.16 147.03L370.16 146.96L370.17 146.9L370.17 146.83L370.17 146.77L370.18 146.7L370.18 146.64L370.19 146.57L370.2 146.51L370.2 146.44L370.21 146.37L370.22 146.31L370.22 146.24L370.23 146.18L370.24 146.11L370.25 146.05L370.26 145.98L370.27 145.92L370.28 145.85L370.29 145.79L370.3 145.72L370.31 145.66L370.32 145.59L370.34 145.53L370.35 145.47L370.36 145.4L370.38 145.34L370.39 145.27L370.4 145.21L370.42 145.14L370.43 145.08L370.45 145.02L370.47 144.95L370.48 144.89L370.5 144.83L370.51 144.8L370.51 144.78L370.52 144.76L370.53 144.74L370.54 144.71L370.54 144.69L370.55 144.67L370.56 144.65L370.57 144.63L370.58 144.61L370.59 144.58L370.6 144.56L370.6 144.54L370.61 144.52L370.62 144.5L370.63 144.48L370.64 144.46L370.65 144.44L370.66 144.42L370.68 144.37L370.71 144.31L370.72 144.29L370.73 144.27L370.74 144.25L370.75 144.23L370.76 144.21L370.77 144.19L370.77 144.17L370.78 144.14L370.79 144.12L370.8 144.1L370.81 144.08L370.82 144.06L370.83 144.04L370.83 144.02L370.84 144L370.85 143.97L370.86 143.93L370.88 143.89L370.89 143.85L370.91 143.81L370.92 143.77L370.93 143.74L370.95 143.7L370.96 143.66L370.98 143.62L370.99 143.58L371.01 143.54L371.02 143.5L371.04 143.46L371.05 143.42L371.07 143.38L371.08 143.34L371.1 143.3L371.12 143.26L371.13 143.22L371.15 143.18L371.16 143.14L371.18 143.1L371.2 143.07L371.21 143.03L371.23 142.99L371.25 142.95L371.26 142.91L371.28 142.87L371.3 142.83L371.32 142.79L371.33 142.76L371.35 142.72L371.37 142.68L371.39 142.64L371.41 142.6L371.43 142.56L371.44 142.53L371.46 142.49L371.48 142.45L371.5 142.41L371.51 142.39L371.53 142.36L371.54 142.34L371.56 142.32L371.57 142.29L371.59 142.27L371.61 142.25L371.62 142.22L371.64 142.2L371.65 142.18L371.67 142.16L371.69 142.13L371.71 142.11L371.72 142.09L371.74 142.07L371.76 142.05L371.77 142.02L371.79 142L371.81 141.98L371.83 141.96L371.85 141.94L371.86 141.92L371.88 141.89L371.92 141.85L371.94 141.83L371.95 141.81L371.97 141.79L371.99 141.77L372.01 141.74L372.02 141.72L372.04 141.7L372.06 141.68L372.08 141.66L372.09 141.64L372.11 141.61L372.13 141.59L372.14 141.57L372.16 141.55L372.18 141.53L372.2 141.49L372.22 141.46L372.24 141.43L372.26 141.4L372.28 141.37L372.3 141.34L372.32 141.31L372.34 141.28L372.36 141.25L372.38 141.22L372.41 141.19L372.43 141.16L372.45 141.13L372.47 141.1L372.49 141.07L372.51 141.04L372.54 141.02L372.56 140.99L372.58 140.96L372.6 140.93L372.63 140.9L372.65 140.87L372.67 140.84L372.7 140.81L372.72 140.78L372.74 140.75L372.76 140.73L372.79 140.7L372.81 140.67L372.83 140.64L372.86 140.61L372.88 140.58L372.91 140.56L372.93 140.53L372.95 140.5L372.98 140.47L373 140.45L373.03 140.42L373.05 140.39L373.08 140.36L373.1 140.34L373.12 140.32L373.14 140.3L373.17 140.28L373.19 140.26L373.22 140.24L373.24 140.22L373.26 140.2L373.29 140.18L373.31 140.16L373.33 140.14L373.36 140.12L373.38 140.11L373.41 140.09L373.43 140.07L373.45 140.05L373.48 140.03L373.5 140.01L373.53 139.99L373.55 139.97L373.57 139.95L373.6 139.93L373.62 139.92L373.65 139.9L373.67 139.88L373.7 139.86L373.72 139.84L373.75 139.82L373.77 139.81L373.8 139.79L373.82 139.77L373.85 139.75L373.87 139.73L373.9 139.72L373.92 139.7L373.95 139.68L373.97 139.66L374 139.65L374.02 139.63L374.05 139.61L374.08 139.59L374.1 139.57L374.13 139.54L374.15 139.52L374.18 139.5L374.21 139.47L374.23 139.45L374.26 139.43L374.29 139.41L374.31 139.38L374.34 139.36L374.37 139.34L374.39 139.32L374.42 139.29L374.45 139.27L374.48 139.25L374.5 139.23L374.53 139.21L374.56 139.18L374.59 139.16L374.61 139.14L374.64 139.12L374.67 139.1L374.7 139.08L374.72 139.06L374.75 139.03L374.78 139.01L374.81 138.99L374.84 138.97L374.86 138.95L374.89 138.93L374.92 138.91L374.95 138.89L374.98 138.87L375.01 138.85L375.03 138.83L375.06 138.81L375.09 138.79L375.12 138.77L375.15 138.75L495.5 69.44L495.73 69.31L495.97 69.18L496.21 69.07L496.45 68.96L496.69 68.85L496.94 68.75L497.18 68.66L497.43 68.58L497.68 68.5L497.93 68.43L498.19 68.37L498.44 68.31L498.69 68.26L498.95 68.22L499.21 68.18L499.47 68.15L499.72 68.13L499.98 68.11L500.24 68.1L500.5 68.1L500.76 68.1L501.02 68.11L501.28 68.13L501.53 68.15L501.79 68.18L502.05 68.22L502.31 68.26L502.56 68.31L502.81 68.37L503.07 68.43L503.32 68.5L503.57 68.58L503.82 68.66L504.06 68.75L504.31 68.85L504.55 68.96L504.79 69.07L505.03 69.18L505.27 69.31L505.5 69.44L625.83 138.71L625.85 138.73L625.88 138.75L625.91 138.77L625.94 138.79L625.97 138.81L626 138.83L626.03 138.85L626.06 138.87L626.09 138.89L626.12 138.91L626.15 138.93L626.17 138.95L626.2 138.97L626.23 138.99L626.26 139.01L626.29 139.04L626.32 139.06L626.34 139.08L626.37 139.1L626.4 139.12L626.43 139.14L626.46 139.16L626.49 139.18L626.51 139.21L626.54 139.23L626.57 139.25L626.6 139.27L626.62 139.29L626.65 139.31L626.68 139.34L626.71 139.36L626.73 139.38L626.76 139.4L626.79 139.43L626.82 139.45L626.84 139.47L626.87 139.49L626.9 139.52L626.92 139.54L626.95 139.56L626.97 139.58L627 139.6L627.02 139.62L627.05 139.64L627.07 139.66L627.09 139.67L627.12 139.69L627.14 139.71L627.17 139.73L627.19 139.75L627.22 139.76L627.24 139.78L627.27 139.8L627.37 139.87L627.39 139.89L627.42 139.91L627.44 139.93L627.47 139.95L627.49 139.96L627.51 139.98L627.54 140L627.56 140.02L627.59 140.04L627.61 140.06L627.64 140.08L627.66 140.1L627.68 140.11L627.71 140.13L627.73 140.15L627.76 140.17L627.78 140.19L627.8 140.21L627.82 140.23L627.85 140.25L627.87 140.27L627.89 140.29L627.91 140.31L627.94 140.34L627.96 140.37L627.99 140.4L628.01 140.42L628.03 140.45L628.06 140.48L628.08 140.51L628.1 140.54L628.13 140.57L628.15 140.6L628.17 140.62L628.2 140.65L628.22 140.68L628.24 140.71L628.27 140.74L628.29 140.77L628.31 140.8L628.34 140.83L628.36 140.86L628.38 140.89L628.4 140.92L628.43 140.94L628.45 140.97L628.47 141L628.49 141.03L628.51 141.06L628.54 141.09L628.56 141.12L628.58 141.15L628.6 141.18L628.62 141.21L628.64 141.24L628.67 141.27L628.69 141.3L628.71 141.33L628.73 141.36L628.75 141.4L628.77 141.43L628.79 141.46L628.81 141.49L628.83 141.51L628.85 141.53L628.87 141.55L628.89 141.57L628.9 141.59L628.92 141.61L628.94 141.64L628.96 141.66L628.98 141.68L628.99 141.7L629.01 141.72L629.03 141.74L629.05 141.76L629.06 141.79L629.08 141.81L629.1 141.83L629.12 141.85L629.13 141.87L629.15 141.9L629.17 141.92L629.18 141.94L629.2 141.96L629.22 141.99L629.23 142.01L629.25 142.03L629.27 142.05L629.28 142.08L629.3 142.1L629.32 142.12L629.33 142.14L629.35 142.17L629.36 142.19L629.38 142.21L629.39 142.24L629.41 142.26L629.43 142.28L629.44 142.31L629.46 142.33L629.47 142.35L629.49 142.38L629.51 142.41L629.53 142.45L629.55 142.49L629.56 142.53L629.58 142.56L629.6 142.6L629.62 142.64L629.64 142.68L629.66 142.72L629.68 142.76L629.69 142.79L629.71 142.83L629.73 142.87L629.75 142.91L629.77 142.95L629.78 142.99L629.8 143.03L629.82 143.06L629.83 143.1L629.85 143.14L629.87 143.18L629.88 143.22L629.9 143.26L629.91 143.3L629.93 143.34L629.95 143.38L629.96 143.42L629.98 143.46L629.99 143.5L630.01 143.54L630.02 143.58L630.04 143.62L630.05 143.66L630.07 143.7L630.08 143.74L630.1 143.78L630.11 143.82L630.12 143.86L630.14 143.9L630.15 143.94L630.16 143.96L630.17 143.98L630.18 144L630.19 144.02L630.2 144.04L630.21 144.06L630.22 144.08L630.23 144.1L630.24 144.12L630.25 144.15L630.26 144.17L630.27 144.19L630.28 144.21L630.28 144.23L630.29 144.25L630.3 144.27L630.31 144.29L630.32 144.31L630.33 144.34L630.34 144.36L630.35 144.38L630.36 144.4L630.36 144.42L630.37 144.44L630.38 144.46L630.39 144.48L630.4 144.51L630.41 144.53L630.41 144.55L630.42 144.57L630.43 144.59L630.44 144.61L630.45 144.64L630.45 144.66L630.46 144.68L630.47 144.7L630.48 144.72L630.49 144.74L630.49 144.77L630.5 144.79L630.52 144.85L630.53 144.92L630.54 144.98L630.56 145.04L630.57 145.11L630.59 145.17L630.6 145.24L630.61 145.3L630.62 145.37L630.63 145.43L630.65 145.5L630.66 145.56L630.67 145.63L630.68 145.69L630.69 145.76L630.7 145.82L630.71 145.89L630.71 145.95L630.72 146.02L630.73 146.08L630.74 146.15L630.74 146.22L630.75 146.28L630.76 146.35L630.76 146.41L630.77 146.48L630.77 146.54L630.78 146.61L630.78 146.68L630.79 146.74L630.79 146.81L630.79 146.87L630.79 146.94L630.8 147L630.8 147.07L630.8 147.14L630.8 147.2L630.8 147.27L630.8 147.33L630.8 147.4L630.8 284.71L630.8 284.98L630.79 285.25L630.77 285.52L630.75 285.78L630.72 286.05L630.69 286.31L630.64 286.57L630.59 286.83L630.54 287.09L630.47 287.35L630.4 287.6L630.32 287.85L630.24 288.1L630.15 288.35L630.06 288.59L629.95 288.83L629.84 289.07L629.73 289.3L629.61 289.53L629.48 289.76L629.35 289.99L629.21 290.21L629.07 290.43L628.92 290.64L628.76 290.85L628.6 291.06L628.43 291.26L628.26 291.46L628.09 291.65L627.9 291.84L627.71 292.03L627.52 292.21L627.32 292.38L627.12 292.55L626.91 292.72L626.7 292.88L626.48 293.03L626.26 293.18L626.03 293.32L625.8 293.46L510.5 359.85L510.5 491.43L510.5 491.69L510.49 491.96L510.47 492.23L510.45 492.49L510.42 492.75L510.38 493.01L510.33 493.27L510.28 493.53L510.22 493.79L510.16 494.04L510.09 494.29L510.01 494.54L509.93 494.79L509.84 495.03L509.74 495.28L509.64 495.51L509.53 495.75L509.41 495.98L509.29 496.21L509.17 496.44L509.03 496.66L508.9 496.88L508.75 497.1L508.6 497.31L508.45 497.52L508.29 497.73L508.12 497.93L507.95 498.12L507.77 498.32L507.59 498.5L507.4 498.69L507.21 498.87L507.02 499.04L506.81 499.21L506.61 499.37L506.39 499.53L506.18 499.68L505.96 499.83L505.73 499.98L505.5 500.11L264.8 638.66L264.76 638.68L264.72 638.71L264.67 638.73L264.63 638.75L264.59 638.77L264.55 638.79L264.5 638.81L264.46 638.83L264.42 638.85L264.37 638.87L264.33 638.89L264.29 638.91L264.25 638.93L264.2 638.95L264.16 638.97L264.12 638.99L264.07 639.01L264.03 639.03L263.98 639.05L263.94 639.06L263.9 639.08L263.85 639.1L263.81 639.12L263.77 639.13L263.72 639.15L263.68 639.17L263.63 639.19L263.59 639.2L263.54 639.22L263.5 639.24L263.45 639.25L263.41 639.27L263.37 639.28L263.32 639.3L263.28 639.31L263.23 639.33L263.19 639.34L263.14 639.36L263.1 639.37L263.05 639.39L263.03 639.39L263.02 639.4L263 639.41L262.98 639.41L262.97 639.42L262.95 639.43L262.93 639.43L262.92 639.44L262.9 639.45L262.88 639.45L262.87 639.46L262.85 639.47L262.83 639.48L262.82 639.48L262.78 639.5L262.73 639.52L262.7 639.54L262.68 639.55L262.66 639.55L262.65 639.56L262.63 639.57L262.61 639.58L262.6 639.58L262.58 639.59L262.56 639.6L262.54 639.6L262.53 639.61L262.51 639.62L262.49 639.62L262.47 639.63L262.45 639.64L262.44 639.64L262.42 639.65L262.4 639.65L262.38 639.66L262.36 639.66L262.24 639.7L262.11 639.73L261.98 639.76L261.86 639.78L261.73 639.81L261.6 639.83L261.47 639.86L261.35 639.88L261.22 639.9L261.09 639.92L260.96 639.93L260.83 639.95L260.7 639.96L260.57 639.97L260.45 639.98L260.32 639.99L260.19 639.99L260.06 640L259.93 640L259.8 640L259.67 640L259.54 640L259.41 639.99L259.28 639.99L259.15 639.98L259.03 639.97L258.9 639.96L258.77 639.95L258.64 639.93L258.51 639.92L258.38 639.9L258.25 639.88L258.13 639.86L258 639.83L257.87 639.81L257.74 639.78L257.62 639.76L257.49 639.73L257.36 639.7L257.24 639.66L257.22 639.66L257.2 639.65L257.18 639.64L257.16 639.64L257.14 639.63L257.12 639.62L257.1 639.62L257.08 639.61L257.06 639.6L257.04 639.59L257.02 639.59L257 639.58L256.98 639.57L256.96 639.56L256.94 639.55L256.92 639.54L256.9 639.54L256.88 639.53L256.86 639.52L256.84 639.51L256.82 639.5L256.8 639.49L256.78 639.48L256.72 639.46L256.7 639.45L256.68 639.44L256.66 639.43L256.65 639.42L256.63 639.41L256.61 639.4L256.59 639.39L256.57 639.39L256.55 639.38L256.53 639.37L256.51 639.36L256.49 639.35L256.47 639.35L256.45 639.34L256.41 639.32L256.36 639.31L256.32 639.3L256.28 639.28L256.24 639.27L256.19 639.25L256.15 639.24L256.11 639.22L256.07 639.21L256.02 639.19L255.98 639.18L255.94 639.16L255.9 639.15L255.86 639.13L255.81 639.12L255.77 639.1L255.73 639.08L255.69 639.07L255.65 639.05L255.61 639.03L255.56 639.02L255.52 639L255.48 638.98L255.44 638.96L255.4 638.95L255.36 638.93L255.32 638.91L255.27 638.89L255.23 638.88L255.19 638.86L255.15 638.84L255.11 638.82L255.07 638.8L255.03 638.78L254.99 638.76L254.95 638.74L254.91 638.72L254.87 638.7L254.83 638.68L254.79 638.66L14.16 500.11L13.93 499.98L13.71 499.83L13.48 499.68L13.27 499.53L13.06 499.37L12.85 499.21L12.65 499.04L12.45 498.87L12.26 498.69L12.07 498.5L11.89 498.32L11.71 498.12L11.54 497.93L11.38 497.73L11.21 497.52L11.06 497.31L10.91 497.1L10.77 496.88L10.63 496.66L10.5 496.44L10.37 496.21L10.25 495.98L10.13 495.75L10.02 495.51L9.92 495.28L9.83 495.03L9.74 494.79L9.65 494.54L9.57 494.29L9.5 494.04L9.44 493.79L9.38 493.53L9.33 493.27L9.29 493.01L9.25 492.75L9.22 492.49L9.19 492.23L9.18 491.96L9.17 491.69L9.16 491.42L9.16 79.3L9.16 79.23L9.16 79.17L9.16 79.1L9.17 79.03L9.17 78.97L9.17 78.9L9.17 78.84L9.18 78.77L9.18 78.7L9.19 78.64L9.19 78.57L9.2 78.5L9.2 78.44L9.21 78.37L9.21 78.31L9.22 78.24L9.23 78.17L9.24 78.11L9.24 78.04L9.25 77.98L9.26 77.91L9.27 77.84L9.28 77.78L9.29 77.71L9.3 77.65L9.31 77.58L9.32 77.52L9.34 77.45L9.35 77.39L9.36 77.32L9.37 77.26L9.39 77.19L9.4 77.13L9.42 77.06L9.43 77L9.45 76.93L9.46 76.87L9.48 76.8L9.5 76.74L9.51 76.68L9.52 76.65L9.53 76.63L9.54 76.61L9.54 76.59L9.55 76.57L9.56 76.55L9.57 76.53L9.58 76.5L9.59 76.48L9.59 76.46L9.6 76.44L9.61 76.42L9.62 76.4L9.63 76.38L9.64 76.36L9.65 76.34L9.65 76.31L9.66 76.29L9.67 76.27L9.68 76.25L9.69 76.23L9.7 76.21L9.71 76.19L9.72 76.17L9.73 76.15L9.74 76.13L9.75 76.11L9.76 76.08L9.77 76.06L9.78 76.04L9.79 76.02L9.79 76L9.8 75.98L9.81 75.96L9.82 75.94L9.83 75.92L9.84 75.9L9.85 75.88L9.86 75.86L9.87 75.84L9.89 75.8L9.9 75.76L9.91 75.72L9.93 75.68L9.94 75.64L9.95 75.6L9.97 75.56L9.98 75.52L10 75.48L10.01 75.44L10.02 75.4L10.04 75.36L10.05 75.32L10.07 75.28L10.08 75.24L10.1 75.2L10.11 75.17L10.13 75.13L10.14 75.09L10.16 75.05L10.18 75.01L10.19 74.97L10.21 74.93L10.23 74.89L10.24 74.86L10.26 74.82L10.28 74.78L10.29 74.74L10.31 74.7L10.33 74.66L10.35 74.63L10.36 74.59L10.38 74.55L10.4 74.51L10.42 74.48L10.44 74.44L10.46 74.4L10.47 74.36L10.49 74.32L10.51 74.29L10.53 74.26L10.54 74.24L10.56 74.22L10.57 74.19L10.59 74.17L10.6 74.15L10.62 74.12L10.63 74.1L10.65 74.08L10.67 74.05L10.68 74.03L10.7 74.01L10.72 73.99L10.74 73.96L10.75 73.94L10.77 73.92L10.79 73.9L10.81 73.88L10.82 73.85L10.84 73.83L10.86 73.81L10.88 73.79L10.9 73.77L10.95 73.7L10.97 73.68L10.99 73.66L11.01 73.64L11.02 73.61L11.04 73.59L11.06 73.57L11.08 73.55L11.1 73.53L11.11 73.5L11.13 73.48L11.15 73.46L11.17 73.43L11.18 73.41L11.2 73.39L11.22 73.36L11.24 73.33L11.26 73.3L11.28 73.27L11.3 73.24L11.32 73.21L11.34 73.17L11.36 73.14L11.39 73.11L11.41 73.09L11.43 73.06L11.45 73.03L11.47 73L11.49 72.97L11.51 72.94L11.53 72.91L11.56 72.88L11.58 72.85L11.6 72.82L11.62 72.79L11.65 72.76L11.67 72.73L11.69 72.7L11.71 72.67L11.74 72.65L11.76 72.62L11.78 72.59L11.8 72.56L11.83 72.53L11.85 72.5L11.87 72.48L11.9 72.45L11.92 72.42L11.94 72.39L11.97 72.36L11.99 72.34L12.02 72.31L12.04 72.28L12.06 72.25L12.09 72.23L12.11 72.2L12.13 72.18L12.16 72.16L12.18 72.14L12.21 72.12L12.23 72.1L12.25 72.08L12.28 72.07L12.3 72.05L12.33 72.03L12.35 72.01L12.37 71.99L12.4 71.97L12.42 71.95L12.45 71.93L12.47 71.91L12.5 71.89L12.52 71.87L12.54 71.85L12.57 71.83L12.59 71.82L12.62 71.8L12.64 71.78L12.67 71.76L12.69 71.74L12.72 71.72L12.74 71.7L12.77 71.69L12.79 71.67L12.82 71.65L12.84 71.63L12.87 71.61L12.9 71.6L12.92 71.58L12.95 71.56L12.97 71.54L13 71.53L13.02 71.51L13.05 71.49L13.08 71.48L13.1 71.45L13.13 71.43L13.15 71.4L13.18 71.38L13.2 71.36L13.23 71.33L13.26 71.31L13.28 71.29L13.31 71.26L13.34 71.24L13.36 71.22L13.39 71.2L13.42 71.17L13.44 71.15L13.47 71.13L13.5 71.11L13.52 71.09L13.55 71.06L13.58 71.04L13.61 71.02L13.63 71L13.66 70.98L13.69 70.96L13.72 70.93L13.75 70.91L13.77 70.89L13.8 70.87L13.83 70.85L13.86 70.83L13.89 70.81L13.91 70.79L13.94 70.77L13.97 70.75L14 70.73L14.03 70.71L14.06 70.69L14.09 70.67L14.12 70.65L14.15 70.63L14.18 70.61L134.51 1.34L134.75 1.21L134.98 1.08L135.22 0.97L135.46 0.86L135.7 0.75L135.95 0.65L136.2 0.56L136.44 0.48L136.69 0.4L136.95 0.33L137.2 0.27L137.45 0.21L137.71 0.16L137.96 0.12L138.22 0.08L138.48 0.05L138.74 0.03L138.99 0.01L139.25 0L139.51 0L139.77 0L140.03 0.01ZM269.85 497.25L269.85 612.64L490.46 485.57L490.46 371.31L433.25 404L269.85 497.25ZM249.81 612.57L249.68 497.12L134.44 431.9L134.41 431.88L134.38 431.86L134.35 431.84L134.33 431.82L134.3 431.8L134.27 431.78L134.24 431.77L134.21 431.75L134.19 431.73L134.16 431.71L134.13 431.69L134.1 431.67L134.08 431.65L134.05 431.63L134.02 431.61L134 431.59L133.97 431.57L133.94 431.54L133.91 431.52L133.89 431.5L133.86 431.48L133.83 431.46L133.81 431.44L133.78 431.42L133.75 431.4L133.73 431.38L133.7 431.36L133.67 431.34L133.65 431.31L133.62 431.29L133.6 431.27L133.57 431.25L133.54 431.23L133.52 431.21L133.49 431.19L133.47 431.16L133.44 431.14L133.41 431.12L133.39 431.1L133.36 431.07L133.34 431.06L133.32 431.04L133.29 431.02L133.27 431L133.24 430.98L133.22 430.97L133.19 430.95L133.17 430.93L133.15 430.91L133.12 430.89L133.1 430.88L133.07 430.86L133.05 430.84L133.02 430.83L133 430.81L132.95 430.77L132.92 430.76L132.9 430.74L132.87 430.72L132.85 430.7L132.82 430.69L132.8 430.67L132.77 430.65L132.75 430.63L132.72 430.62L132.7 430.6L132.68 430.58L132.65 430.56L132.63 430.54L132.6 430.53L132.58 430.51L132.56 430.49L132.53 430.47L132.51 430.45L132.49 430.43L132.47 430.41L132.44 430.39L132.42 430.37L132.4 430.35L132.38 430.33L132.36 430.3L132.33 430.28L132.31 430.25L132.29 430.23L132.27 430.2L132.25 430.17L132.22 430.15L132.2 430.12L132.18 430.1L132.16 430.07L132.14 430.05L132.12 430.02L132.09 430L132.07 429.97L132.05 429.94L132.03 429.92L132.01 429.89L131.99 429.87L131.97 429.84L131.95 429.81L131.93 429.79L131.91 429.76L131.89 429.73L131.87 429.71L131.85 429.68L131.83 429.65L131.81 429.63L131.79 429.6L131.77 429.57L131.75 429.55L131.73 429.52L131.71 429.49L131.69 429.46L131.67 429.44L131.65 429.41L131.63 429.38L131.61 429.36L131.59 429.33L131.57 429.3L131.55 429.28L131.53 429.25L131.51 429.23L131.49 429.21L131.48 429.18L131.46 429.16L131.44 429.14L131.42 429.11L131.4 429.09L131.38 429.06L131.36 429.04L131.34 429.02L131.32 428.99L131.3 428.97L131.28 428.94L131.26 428.92L131.24 428.9L131.22 428.87L131.2 428.85L131.19 428.82L131.17 428.8L131.15 428.77L131.13 428.75L131.11 428.73L131.09 428.7L131.07 428.68L131.06 428.65L131.04 428.63L131.02 428.6L131 428.58L130.98 428.55L130.97 428.53L130.95 428.5L130.93 428.48L130.91 428.45L130.89 428.43L130.88 428.4L130.86 428.38L130.84 428.35L130.83 428.32L130.81 428.29L130.79 428.26L130.78 428.23L130.76 428.2L130.75 428.17L130.73 428.14L130.72 428.11L130.7 428.08L130.69 428.05L130.67 428.02L130.66 427.99L130.65 427.96L130.63 427.93L130.62 427.9L130.6 427.87L130.59 427.84L130.58 427.8L130.56 427.77L130.55 427.74L130.54 427.71L130.52 427.68L130.51 427.65L130.5 427.62L130.48 427.59L130.47 427.55L130.46 427.52L130.45 427.49L130.44 427.46L130.42 427.43L130.41 427.4L130.4 427.36L130.39 427.33L130.38 427.3L130.37 427.27L130.35 427.24L130.34 427.2L130.33 427.17L130.32 427.14L130.31 427.11L130.3 427.08L130.29 427.05L130.27 427.02L130.26 426.99L130.24 426.97L130.23 426.94L130.22 426.91L130.2 426.88L130.19 426.86L130.18 426.83L130.16 426.8L130.15 426.77L130.14 426.75L130.13 426.72L130.11 426.69L130.1 426.66L130.09 426.63L130.08 426.61L130.06 426.58L130.05 426.55L130.04 426.52L130.03 426.49L130.02 426.47L130 426.44L129.99 426.41L129.98 426.38L129.97 426.35L129.96 426.32L129.95 426.3L129.94 426.27L129.93 426.24L129.92 426.21L129.91 426.18L129.89 426.15L129.88 426.12L129.87 426.09L129.86 426.07L129.85 426.04L129.84 426.01L129.83 425.98L129.83 425.95L129.82 425.91L129.81 425.88L129.8 425.84L129.8 425.8L129.79 425.77L129.78 425.73L129.77 425.69L129.77 425.66L129.76 425.62L129.75 425.58L129.75 425.55L129.74 425.51L129.74 425.47L129.73 425.44L129.72 425.4L129.72 425.36L129.71 425.33L129.71 425.29L129.7 425.25L129.7 425.22L129.69 425.18L129.69 425.14L129.68 425.11L129.68 425.07L129.67 425.03L129.67 424.99L129.67 424.96L129.66 424.92L129.66 424.88L129.65 424.85L129.65 424.81L129.65 424.77L129.64 424.74L129.64 424.7L129.64 424.66L129.64 424.62L129.63 424.59L129.63 424.55L129.63 424.51L129.63 424.48L129.62 424.45L129.61 424.42L129.61 424.39L129.6 424.36L129.6 424.34L129.59 424.31L129.59 424.28L129.58 424.25L129.58 424.22L129.57 424.2L129.57 424.17L129.56 424.14L129.56 424.11L129.56 424.08L129.55 424.06L129.55 424.03L129.54 424L129.54 423.97L129.54 423.94L129.53 423.91L129.53 423.89L129.52 423.86L129.52 423.83L129.52 423.8L129.51 423.77L129.51 423.75L129.51 423.72L129.5 423.69L129.5 423.66L129.5 423.63L129.5 423.6L129.49 423.58L129.49 423.55L129.49 423.52L129.49 423.49L129.48 423.46L129.48 423.43L129.48 423.41L129.48 423.38L129.48 423.35L129.48 154.38L71.33 120.88L29.21 96.65L29.21 485.63L249.81 612.57ZM159.74 423.21L259.81 479.86L406.84 395.92L480.34 353.97L380.17 296.31L264.85 362.7L159.74 423.21ZM149.54 154.38L149.54 405.99L191.65 381.74L249.81 348.25L249.81 96.6L207.7 120.89L149.54 154.38ZM510.46 222.5L510.46 336.66L610.85 278.98L610.85 164.74L568.75 188.99L510.46 222.5ZM448.35 312.5L490.46 336.66L490.46 222.5L432.3 188.99L390.19 164.74L390.19 279.01L448.35 312.5ZM500.46 205.06L600.69 147.34L500.46 89.65L400.21 147.35L500.46 205.06ZM139.49 137.01L239.74 79.29L139.5 21.6L39.26 79.3L139.49 137.01Z" id="a9alA4Jr8U"></path></defs><g><g><use xlink:href="#a9alA4Jr8U" opacity="1" fill="#f72c1f" fill-opacity="1"></use><g><use xlink:href="#a9alA4Jr8U" opacity="1" fill-opacity="0" stroke="#000000" stroke-width="1" stroke-opacity="0"></use></g></g></g></svg>