<?xml version="1.0" encoding="UTF-8" standalone="no"?>
<!DOCTYPE svg PUBLIC "-//W3C//DTD SVG 1.1//EN" "http://www.w3.org/Graphics/SVG/1.1/DTD/svg11.dtd">
<svg version="1.1" xmlns="http://www.w3.org/2000/svg" xmlns:xlink="http://www.w3.org/1999/xlink" preserveAspectRatio="xMidYMid meet" viewBox="3.1237701483260307e-15 1.4210854715202004e-14 336.8488954657003 161.77230563674328" width="336.85" height="161.77"><defs><path d="M26.66 34.03C56.63 34.03 73.28 34.03 76.61 34.03C91.27 34.15 101.9 38.19 108.49 46.14C115.07 54.1 117.25 64.97 115.01 78.75C114.14 85.04 112.22 91.22 109.23 97.28C106.37 103.33 102.4 108.8 97.3 113.67C91.09 119.84 84.44 123.76 77.36 125.43C70.27 127.09 62.94 127.92 55.36 127.92C53.87 127.92 46.41 127.92 32.99 127.92L25.91 161.77L0 161.77L26.66 34.03L26.66 34.03M48.46 54.34C41.75 86.41 38.03 104.23 37.28 107.79C38.03 107.91 38.77 107.97 39.52 107.97C40.39 107.97 41.26 107.97 42.13 107.97C54.06 108.08 64 106.96 71.95 104.58C79.9 102.09 85.25 93.42 87.98 78.57C90.22 66.1 87.98 58.91 81.27 57.01C74.68 55.11 66.42 54.22 56.48 54.34C54.99 54.46 53.56 54.52 52.19 54.52C50.95 54.52 49.65 54.52 48.28 54.52C48.29 54.51 48.35 54.45 48.46 54.34" id="azpm5W8V4"></path><clipPath id="clipc1tsLIXarO"><use xlink:href="#azpm5W8V4" opacity="1"></use></clipPath><path d="M144.53 0L170.25 0L162.98 34.03C176.85 34.03 184.55 34.03 186.09 34.03C198.77 34.27 208.21 36.76 214.43 41.51C220.77 46.26 222.63 55.29 220.02 68.59C219.19 72.55 215.02 92.32 207.53 127.92L181.43 127.92C188.59 93.93 192.57 75.04 193.36 71.27C194.61 65.33 194.23 61.11 192.25 58.62C190.26 56.12 185.97 54.87 179.38 54.87C178 54.86 171.11 54.8 158.69 54.7L143.41 127.92L117.68 127.92L144.53 0L144.53 0" id="d2cSK3dujE"></path><clipPath id="clipfooRPkGcp"><use xlink:href="#d2cSK3dujE" opacity="1"></use></clipPath><path d="M247.64 34.03C277.62 34.03 294.27 34.03 297.6 34.03C312.26 34.15 322.89 38.19 329.47 46.14C336.06 54.1 338.23 64.97 336 78.75C335.13 85.04 333.2 91.22 330.22 97.28C327.36 103.33 323.39 108.8 318.29 113.67C312.08 119.84 305.43 123.76 298.34 125.43C291.26 127.09 283.93 127.92 276.35 127.92C274.86 127.92 267.4 127.92 253.98 127.92L246.9 161.77L220.99 161.77L247.64 34.03L247.64 34.03M269.45 54.34C262.74 86.41 259.01 104.23 258.27 107.79C259.01 107.91 259.76 107.97 260.5 107.97C261.37 107.97 262.25 107.97 263.11 107.97C275.04 108.08 284.99 106.96 292.94 104.58C300.89 102.09 306.24 93.42 308.97 78.57C311.21 66.1 308.97 58.91 302.26 57.01C295.67 55.11 287.41 54.22 277.47 54.34C275.98 54.46 274.55 54.52 273.18 54.52C271.94 54.52 270.63 54.52 269.27 54.52C269.28 54.51 269.34 54.45 269.45 54.34" id="asH0HCuVX"></path><clipPath id="clipbkMNoyxbE"><use xlink:href="#asH0HCuVX" opacity="1"></use></clipPath></defs><g><g><g><use xlink:href="#azpm5W8V4" opacity="1" fill="#989898" fill-opacity="1"></use><g clip-path="url(#clipc1tsLIXarO)"><use xlink:href="#azpm5W8V4" opacity="1" fill-opacity="0" stroke="#000000" stroke-width="2" stroke-opacity="0"></use></g></g><g><use xlink:href="#d2cSK3dujE" opacity="1" fill="#989898" fill-opacity="1"></use><g clip-path="url(#clipfooRPkGcp)"><use xlink:href="#d2cSK3dujE" opacity="1" fill-opacity="0" stroke="#000000" stroke-width="2" stroke-opacity="0"></use></g></g><g><use xlink:href="#asH0HCuVX" opacity="1" fill="#989898" fill-opacity="1"></use><g clip-path="url(#clipbkMNoyxbE)"><use xlink:href="#asH0HCuVX" opacity="1" fill-opacity="0" stroke="#000000" stroke-width="2" stroke-opacity="0"></use></g></g></g></g></svg>